<mxfile host="app.diagrams.net" modified="2023-11-24T04:57:04.171Z" agent="Mozilla/5.0 (Windows NT 10.0; Win64; x64) AppleWebKit/537.36 (KHTML, like Gecko) Chrome/119.0.0.0 Safari/537.36 Edg/119.0.0.0" etag="BkWarS1YYFQYwwFO2N3k" version="22.1.3" type="device">
  <diagram name="Page-1" id="NxBsIqm-GUk7_8INEeEL">
    <mxGraphModel dx="1822" dy="1049" grid="1" gridSize="10" guides="1" tooltips="1" connect="1" arrows="1" fold="1" page="1" pageScale="1" pageWidth="1400" pageHeight="850" math="0" shadow="0">
      <root>
        <mxCell id="0" />
        <mxCell id="1" parent="0" />
        <mxCell id="SvzoBT6RqrIEkRedDi3E-1" value="Cutomer" style="text;strokeColor=none;align=center;fillColor=none;html=1;verticalAlign=middle;whiteSpace=wrap;rounded=0;" parent="1" vertex="1">
          <mxGeometry x="60" y="10" width="60" height="30" as="geometry" />
        </mxCell>
        <mxCell id="SvzoBT6RqrIEkRedDi3E-2" value="" style="endArrow=none;dashed=1;html=1;rounded=0;" parent="1" edge="1">
          <mxGeometry width="50" height="50" relative="1" as="geometry">
            <mxPoint x="280" y="880" as="sourcePoint" />
            <mxPoint x="280" as="targetPoint" />
          </mxGeometry>
        </mxCell>
        <mxCell id="SvzoBT6RqrIEkRedDi3E-3" value="system" style="text;strokeColor=none;align=center;fillColor=none;html=1;verticalAlign=middle;whiteSpace=wrap;rounded=0;" parent="1" vertex="1">
          <mxGeometry x="540" y="10" width="60" height="30" as="geometry" />
        </mxCell>
        <mxCell id="SvzoBT6RqrIEkRedDi3E-4" value="" style="endArrow=none;dashed=1;html=1;rounded=0;" parent="1" edge="1">
          <mxGeometry width="50" height="50" relative="1" as="geometry">
            <mxPoint x="960" y="1050" as="sourcePoint" />
            <mxPoint x="960" y="1" as="targetPoint" />
          </mxGeometry>
        </mxCell>
        <mxCell id="SvzoBT6RqrIEkRedDi3E-5" value="Admin" style="text;strokeColor=none;align=center;fillColor=none;html=1;verticalAlign=middle;whiteSpace=wrap;rounded=0;" parent="1" vertex="1">
          <mxGeometry x="1000" y="10" width="60" height="30" as="geometry" />
        </mxCell>
        <mxCell id="SvzoBT6RqrIEkRedDi3E-6" value="" style="endArrow=none;dashed=1;html=1;rounded=0;" parent="1" edge="1">
          <mxGeometry width="50" height="50" relative="1" as="geometry">
            <mxPoint x="10" y="40" as="sourcePoint" />
            <mxPoint x="1390" y="40" as="targetPoint" />
          </mxGeometry>
        </mxCell>
        <mxCell id="SvzoBT6RqrIEkRedDi3E-9" value="" style="edgeStyle=orthogonalEdgeStyle;rounded=0;orthogonalLoop=1;jettySize=auto;html=1;" parent="1" source="SvzoBT6RqrIEkRedDi3E-7" target="SvzoBT6RqrIEkRedDi3E-8" edge="1">
          <mxGeometry relative="1" as="geometry" />
        </mxCell>
        <mxCell id="SvzoBT6RqrIEkRedDi3E-79" style="edgeStyle=orthogonalEdgeStyle;rounded=0;orthogonalLoop=1;jettySize=auto;html=1;exitX=0;exitY=0.5;exitDx=0;exitDy=0;entryX=0;entryY=0.5;entryDx=0;entryDy=0;" parent="1" source="SvzoBT6RqrIEkRedDi3E-7" target="SvzoBT6RqrIEkRedDi3E-16" edge="1">
          <mxGeometry relative="1" as="geometry" />
        </mxCell>
        <mxCell id="SvzoBT6RqrIEkRedDi3E-7" value="" style="ellipse;whiteSpace=wrap;html=1;" parent="1" vertex="1">
          <mxGeometry x="80" y="70" width="80" height="30" as="geometry" />
        </mxCell>
        <mxCell id="SvzoBT6RqrIEkRedDi3E-12" value="" style="edgeStyle=orthogonalEdgeStyle;rounded=0;orthogonalLoop=1;jettySize=auto;html=1;" parent="1" source="SvzoBT6RqrIEkRedDi3E-8" edge="1">
          <mxGeometry relative="1" as="geometry">
            <mxPoint x="410" y="190" as="targetPoint" />
          </mxGeometry>
        </mxCell>
        <mxCell id="SvzoBT6RqrIEkRedDi3E-8" value="" style="whiteSpace=wrap;html=1;" parent="1" vertex="1">
          <mxGeometry x="60" y="165" width="120" height="55" as="geometry" />
        </mxCell>
        <mxCell id="SvzoBT6RqrIEkRedDi3E-10" value="Regsitration" style="text;strokeColor=none;align=center;fillColor=none;html=1;verticalAlign=middle;whiteSpace=wrap;rounded=0;" parent="1" vertex="1">
          <mxGeometry x="80" y="177.5" width="60" height="30" as="geometry" />
        </mxCell>
        <mxCell id="SvzoBT6RqrIEkRedDi3E-71" style="edgeStyle=orthogonalEdgeStyle;rounded=0;orthogonalLoop=1;jettySize=auto;html=1;exitX=0.25;exitY=0;exitDx=0;exitDy=0;entryX=0.5;entryY=0;entryDx=0;entryDy=0;" parent="1" source="SvzoBT6RqrIEkRedDi3E-16" target="SvzoBT6RqrIEkRedDi3E-63" edge="1">
          <mxGeometry relative="1" as="geometry" />
        </mxCell>
        <mxCell id="SvzoBT6RqrIEkRedDi3E-16" value="" style="whiteSpace=wrap;html=1;" parent="1" vertex="1">
          <mxGeometry x="50" y="427.5" width="120" height="60" as="geometry" />
        </mxCell>
        <mxCell id="SvzoBT6RqrIEkRedDi3E-18" value="input login data" style="text;html=1;strokeColor=none;fillColor=none;align=center;verticalAlign=middle;whiteSpace=wrap;rounded=0;" parent="1" vertex="1">
          <mxGeometry x="80" y="442.5" width="60" height="30" as="geometry" />
        </mxCell>
        <mxCell id="SvzoBT6RqrIEkRedDi3E-87" value="" style="edgeStyle=orthogonalEdgeStyle;rounded=0;orthogonalLoop=1;jettySize=auto;html=1;" parent="1" source="SvzoBT6RqrIEkRedDi3E-20" target="SvzoBT6RqrIEkRedDi3E-86" edge="1">
          <mxGeometry relative="1" as="geometry" />
        </mxCell>
        <mxCell id="SvzoBT6RqrIEkRedDi3E-20" value="" style="whiteSpace=wrap;html=1;" parent="1" vertex="1">
          <mxGeometry x="50" y="535" width="120" height="60" as="geometry" />
        </mxCell>
        <mxCell id="SvzoBT6RqrIEkRedDi3E-22" value="login" style="text;html=1;strokeColor=none;fillColor=none;align=center;verticalAlign=middle;whiteSpace=wrap;rounded=0;" parent="1" vertex="1">
          <mxGeometry x="70" y="550" width="60" height="30" as="geometry" />
        </mxCell>
        <mxCell id="SvzoBT6RqrIEkRedDi3E-25" value="" style="edgeStyle=orthogonalEdgeStyle;rounded=0;orthogonalLoop=1;jettySize=auto;html=1;" parent="1" source="SvzoBT6RqrIEkRedDi3E-23" target="SvzoBT6RqrIEkRedDi3E-24" edge="1">
          <mxGeometry relative="1" as="geometry" />
        </mxCell>
        <mxCell id="SvzoBT6RqrIEkRedDi3E-23" value="" style="ellipse;whiteSpace=wrap;html=1;" parent="1" vertex="1">
          <mxGeometry x="1010" y="50" width="100" height="50" as="geometry" />
        </mxCell>
        <mxCell id="SvzoBT6RqrIEkRedDi3E-56" value="" style="edgeStyle=orthogonalEdgeStyle;rounded=0;orthogonalLoop=1;jettySize=auto;html=1;" parent="1" source="SvzoBT6RqrIEkRedDi3E-24" target="SvzoBT6RqrIEkRedDi3E-55" edge="1">
          <mxGeometry relative="1" as="geometry" />
        </mxCell>
        <mxCell id="SvzoBT6RqrIEkRedDi3E-24" value="" style="whiteSpace=wrap;html=1;" parent="1" vertex="1">
          <mxGeometry x="1000" y="175" width="130" height="55" as="geometry" />
        </mxCell>
        <mxCell id="SvzoBT6RqrIEkRedDi3E-28" value="" style="edgeStyle=orthogonalEdgeStyle;rounded=0;orthogonalLoop=1;jettySize=auto;html=1;" parent="1" source="SvzoBT6RqrIEkRedDi3E-26" target="SvzoBT6RqrIEkRedDi3E-27" edge="1">
          <mxGeometry relative="1" as="geometry" />
        </mxCell>
        <mxCell id="SvzoBT6RqrIEkRedDi3E-26" value="Login" style="text;html=1;strokeColor=none;fillColor=none;align=center;verticalAlign=middle;whiteSpace=wrap;rounded=0;" parent="1" vertex="1">
          <mxGeometry x="1035" y="190" width="60" height="30" as="geometry" />
        </mxCell>
        <mxCell id="SvzoBT6RqrIEkRedDi3E-42" value="" style="edgeStyle=orthogonalEdgeStyle;rounded=0;orthogonalLoop=1;jettySize=auto;html=1;" parent="1" source="SvzoBT6RqrIEkRedDi3E-27" target="SvzoBT6RqrIEkRedDi3E-41" edge="1">
          <mxGeometry relative="1" as="geometry" />
        </mxCell>
        <mxCell id="SvzoBT6RqrIEkRedDi3E-27" value="" style="whiteSpace=wrap;html=1;" parent="1" vertex="1">
          <mxGeometry x="1005" y="285" width="120" height="60" as="geometry" />
        </mxCell>
        <mxCell id="SvzoBT6RqrIEkRedDi3E-29" value="create&lt;br&gt;accounts" style="text;html=1;strokeColor=none;fillColor=none;align=center;verticalAlign=middle;whiteSpace=wrap;rounded=0;" parent="1" vertex="1">
          <mxGeometry x="1035" y="305" width="60" height="30" as="geometry" />
        </mxCell>
        <mxCell id="SvzoBT6RqrIEkRedDi3E-44" value="" style="edgeStyle=orthogonalEdgeStyle;rounded=0;orthogonalLoop=1;jettySize=auto;html=1;" parent="1" source="SvzoBT6RqrIEkRedDi3E-41" target="SvzoBT6RqrIEkRedDi3E-43" edge="1">
          <mxGeometry relative="1" as="geometry" />
        </mxCell>
        <mxCell id="SvzoBT6RqrIEkRedDi3E-41" value="validate account" style="whiteSpace=wrap;html=1;" parent="1" vertex="1">
          <mxGeometry x="710" y="285" width="120" height="60" as="geometry" />
        </mxCell>
        <mxCell id="SvzoBT6RqrIEkRedDi3E-46" value="" style="edgeStyle=orthogonalEdgeStyle;rounded=0;orthogonalLoop=1;jettySize=auto;html=1;" parent="1" source="SvzoBT6RqrIEkRedDi3E-43" target="SvzoBT6RqrIEkRedDi3E-45" edge="1">
          <mxGeometry relative="1" as="geometry" />
        </mxCell>
        <mxCell id="SvzoBT6RqrIEkRedDi3E-51" value="" style="edgeStyle=orthogonalEdgeStyle;rounded=0;orthogonalLoop=1;jettySize=auto;html=1;" parent="1" source="SvzoBT6RqrIEkRedDi3E-43" target="SvzoBT6RqrIEkRedDi3E-50" edge="1">
          <mxGeometry relative="1" as="geometry" />
        </mxCell>
        <mxCell id="SvzoBT6RqrIEkRedDi3E-43" value="if error exists?" style="rhombus;whiteSpace=wrap;html=1;" parent="1" vertex="1">
          <mxGeometry x="700" y="415" width="140" height="115" as="geometry" />
        </mxCell>
        <mxCell id="SvzoBT6RqrIEkRedDi3E-45" value="display errors" style="whiteSpace=wrap;html=1;" parent="1" vertex="1">
          <mxGeometry x="710" y="639.5" width="120" height="60" as="geometry" />
        </mxCell>
        <mxCell id="SvzoBT6RqrIEkRedDi3E-47" value="yes" style="text;html=1;strokeColor=none;fillColor=none;align=center;verticalAlign=middle;whiteSpace=wrap;rounded=0;" parent="1" vertex="1">
          <mxGeometry x="770" y="550" width="60" height="30" as="geometry" />
        </mxCell>
        <mxCell id="SvzoBT6RqrIEkRedDi3E-49" style="edgeStyle=orthogonalEdgeStyle;rounded=0;orthogonalLoop=1;jettySize=auto;html=1;exitX=1;exitY=0.5;exitDx=0;exitDy=0;entryX=0.445;entryY=0.967;entryDx=0;entryDy=0;entryPerimeter=0;" parent="1" source="SvzoBT6RqrIEkRedDi3E-45" target="SvzoBT6RqrIEkRedDi3E-27" edge="1">
          <mxGeometry relative="1" as="geometry" />
        </mxCell>
        <mxCell id="SvzoBT6RqrIEkRedDi3E-54" value="" style="edgeStyle=orthogonalEdgeStyle;rounded=0;orthogonalLoop=1;jettySize=auto;html=1;" parent="1" source="SvzoBT6RqrIEkRedDi3E-50" target="SvzoBT6RqrIEkRedDi3E-53" edge="1">
          <mxGeometry relative="1" as="geometry" />
        </mxCell>
        <mxCell id="SvzoBT6RqrIEkRedDi3E-50" value="save account" style="whiteSpace=wrap;html=1;" parent="1" vertex="1">
          <mxGeometry x="490" y="442.5" width="120" height="60" as="geometry" />
        </mxCell>
        <mxCell id="SvzoBT6RqrIEkRedDi3E-52" value="no" style="text;html=1;strokeColor=none;fillColor=none;align=center;verticalAlign=middle;whiteSpace=wrap;rounded=0;" parent="1" vertex="1">
          <mxGeometry x="640" y="442.5" width="60" height="30" as="geometry" />
        </mxCell>
        <mxCell id="SvzoBT6RqrIEkRedDi3E-53" value="" style="ellipse;whiteSpace=wrap;html=1;" parent="1" vertex="1">
          <mxGeometry x="510" y="572.5" width="80" height="47.5" as="geometry" />
        </mxCell>
        <mxCell id="SvzoBT6RqrIEkRedDi3E-58" value="" style="edgeStyle=orthogonalEdgeStyle;rounded=0;orthogonalLoop=1;jettySize=auto;html=1;" parent="1" source="SvzoBT6RqrIEkRedDi3E-55" target="SvzoBT6RqrIEkRedDi3E-57" edge="1">
          <mxGeometry relative="1" as="geometry">
            <Array as="points">
              <mxPoint x="1275" y="750" />
              <mxPoint x="1150" y="750" />
            </Array>
          </mxGeometry>
        </mxCell>
        <mxCell id="SvzoBT6RqrIEkRedDi3E-55" value="check accounts" style="whiteSpace=wrap;html=1;" parent="1" vertex="1">
          <mxGeometry x="1210" y="175" width="130" height="55" as="geometry" />
        </mxCell>
        <mxCell id="SvzoBT6RqrIEkRedDi3E-60" value="" style="edgeStyle=orthogonalEdgeStyle;rounded=0;orthogonalLoop=1;jettySize=auto;html=1;" parent="1" source="SvzoBT6RqrIEkRedDi3E-57" target="SvzoBT6RqrIEkRedDi3E-59" edge="1">
          <mxGeometry relative="1" as="geometry">
            <Array as="points">
              <mxPoint x="840" y="960" />
            </Array>
          </mxGeometry>
        </mxCell>
        <mxCell id="SvzoBT6RqrIEkRedDi3E-57" value="display accounts" style="whiteSpace=wrap;html=1;" parent="1" vertex="1">
          <mxGeometry x="780" y="770" width="120" height="60" as="geometry" />
        </mxCell>
        <mxCell id="SvzoBT6RqrIEkRedDi3E-62" value="" style="edgeStyle=orthogonalEdgeStyle;rounded=0;orthogonalLoop=1;jettySize=auto;html=1;" parent="1" source="SvzoBT6RqrIEkRedDi3E-59" target="SvzoBT6RqrIEkRedDi3E-61" edge="1">
          <mxGeometry relative="1" as="geometry">
            <Array as="points">
              <mxPoint x="1230" y="1020" />
            </Array>
          </mxGeometry>
        </mxCell>
        <mxCell id="SvzoBT6RqrIEkRedDi3E-59" value="update/delete accounts" style="whiteSpace=wrap;html=1;" parent="1" vertex="1">
          <mxGeometry x="1170" y="930" width="120" height="60" as="geometry" />
        </mxCell>
        <mxCell id="SvzoBT6RqrIEkRedDi3E-91" value="" style="edgeStyle=orthogonalEdgeStyle;rounded=0;orthogonalLoop=1;jettySize=auto;html=1;" parent="1" source="SvzoBT6RqrIEkRedDi3E-61" target="SvzoBT6RqrIEkRedDi3E-90" edge="1">
          <mxGeometry relative="1" as="geometry" />
        </mxCell>
        <mxCell id="SvzoBT6RqrIEkRedDi3E-61" value="update database" style="whiteSpace=wrap;html=1;" parent="1" vertex="1">
          <mxGeometry x="620" y="1000" width="120" height="60" as="geometry" />
        </mxCell>
        <mxCell id="SvzoBT6RqrIEkRedDi3E-65" style="edgeStyle=orthogonalEdgeStyle;rounded=0;orthogonalLoop=1;jettySize=auto;html=1;exitX=0.5;exitY=1;exitDx=0;exitDy=0;entryX=1;entryY=0.75;entryDx=0;entryDy=0;" parent="1" source="SvzoBT6RqrIEkRedDi3E-63" target="SvzoBT6RqrIEkRedDi3E-20" edge="1">
          <mxGeometry relative="1" as="geometry" />
        </mxCell>
        <mxCell id="SvzoBT6RqrIEkRedDi3E-63" value="if errors in login data" style="rhombus;whiteSpace=wrap;html=1;" parent="1" vertex="1">
          <mxGeometry x="360" y="335" width="140" height="100" as="geometry" />
        </mxCell>
        <mxCell id="SvzoBT6RqrIEkRedDi3E-66" value="no" style="text;html=1;strokeColor=none;fillColor=none;align=center;verticalAlign=middle;whiteSpace=wrap;rounded=0;" parent="1" vertex="1">
          <mxGeometry x="350" y="415" width="60" height="30" as="geometry" />
        </mxCell>
        <mxCell id="SvzoBT6RqrIEkRedDi3E-81" value="" style="edgeStyle=orthogonalEdgeStyle;rounded=0;orthogonalLoop=1;jettySize=auto;html=1;" parent="1" source="SvzoBT6RqrIEkRedDi3E-68" target="SvzoBT6RqrIEkRedDi3E-80" edge="1">
          <mxGeometry relative="1" as="geometry" />
        </mxCell>
        <mxCell id="SvzoBT6RqrIEkRedDi3E-68" value="yes" style="text;html=1;strokeColor=none;fillColor=none;align=center;verticalAlign=middle;whiteSpace=wrap;rounded=0;" parent="1" vertex="1">
          <mxGeometry x="320" y="370" width="60" height="30" as="geometry" />
        </mxCell>
        <mxCell id="SvzoBT6RqrIEkRedDi3E-73" value="" style="edgeStyle=orthogonalEdgeStyle;rounded=0;orthogonalLoop=1;jettySize=auto;html=1;" parent="1" source="SvzoBT6RqrIEkRedDi3E-69" target="SvzoBT6RqrIEkRedDi3E-72" edge="1">
          <mxGeometry relative="1" as="geometry" />
        </mxCell>
        <mxCell id="SvzoBT6RqrIEkRedDi3E-69" value="validate registration" style="rounded=0;whiteSpace=wrap;html=1;" parent="1" vertex="1">
          <mxGeometry x="410" y="165" width="120" height="60" as="geometry" />
        </mxCell>
        <mxCell id="SvzoBT6RqrIEkRedDi3E-72" value="if error in register?" style="rhombus;whiteSpace=wrap;html=1;rounded=0;" parent="1" vertex="1">
          <mxGeometry x="630" y="150" width="110" height="100" as="geometry" />
        </mxCell>
        <mxCell id="SvzoBT6RqrIEkRedDi3E-84" value="" style="edgeStyle=orthogonalEdgeStyle;rounded=0;orthogonalLoop=1;jettySize=auto;html=1;exitX=0.5;exitY=0;exitDx=0;exitDy=0;" parent="1" source="SvzoBT6RqrIEkRedDi3E-72" target="SvzoBT6RqrIEkRedDi3E-83" edge="1">
          <mxGeometry relative="1" as="geometry" />
        </mxCell>
        <mxCell id="SvzoBT6RqrIEkRedDi3E-75" value="yes" style="text;html=1;strokeColor=none;fillColor=none;align=center;verticalAlign=middle;whiteSpace=wrap;rounded=0;" parent="1" vertex="1">
          <mxGeometry x="600" y="135" width="60" height="30" as="geometry" />
        </mxCell>
        <mxCell id="SvzoBT6RqrIEkRedDi3E-77" value="no" style="text;html=1;strokeColor=none;fillColor=none;align=center;verticalAlign=middle;whiteSpace=wrap;rounded=0;" parent="1" vertex="1">
          <mxGeometry x="620" y="250" width="60" height="30" as="geometry" />
        </mxCell>
        <mxCell id="SvzoBT6RqrIEkRedDi3E-78" style="edgeStyle=orthogonalEdgeStyle;rounded=0;orthogonalLoop=1;jettySize=auto;html=1;exitX=0.5;exitY=1;exitDx=0;exitDy=0;entryX=0.59;entryY=-0.018;entryDx=0;entryDy=0;entryPerimeter=0;" parent="1" source="SvzoBT6RqrIEkRedDi3E-72" target="SvzoBT6RqrIEkRedDi3E-50" edge="1">
          <mxGeometry relative="1" as="geometry" />
        </mxCell>
        <mxCell id="SvzoBT6RqrIEkRedDi3E-82" style="edgeStyle=orthogonalEdgeStyle;rounded=0;orthogonalLoop=1;jettySize=auto;html=1;exitX=0;exitY=0.5;exitDx=0;exitDy=0;entryX=1;entryY=0.75;entryDx=0;entryDy=0;" parent="1" source="SvzoBT6RqrIEkRedDi3E-80" target="SvzoBT6RqrIEkRedDi3E-16" edge="1">
          <mxGeometry relative="1" as="geometry" />
        </mxCell>
        <mxCell id="SvzoBT6RqrIEkRedDi3E-80" value="dispaly login errors" style="whiteSpace=wrap;html=1;" parent="1" vertex="1">
          <mxGeometry x="290" y="445" width="100" height="60" as="geometry" />
        </mxCell>
        <mxCell id="SvzoBT6RqrIEkRedDi3E-85" style="edgeStyle=orthogonalEdgeStyle;rounded=0;orthogonalLoop=1;jettySize=auto;html=1;exitX=0;exitY=0.5;exitDx=0;exitDy=0;entryX=0.75;entryY=0;entryDx=0;entryDy=0;" parent="1" source="SvzoBT6RqrIEkRedDi3E-83" target="SvzoBT6RqrIEkRedDi3E-8" edge="1">
          <mxGeometry relative="1" as="geometry" />
        </mxCell>
        <mxCell id="SvzoBT6RqrIEkRedDi3E-83" value="display resgistration errors" style="whiteSpace=wrap;html=1;" parent="1" vertex="1">
          <mxGeometry x="460" y="80" width="120" height="60" as="geometry" />
        </mxCell>
        <mxCell id="SvzoBT6RqrIEkRedDi3E-89" value="" style="edgeStyle=orthogonalEdgeStyle;rounded=0;orthogonalLoop=1;jettySize=auto;html=1;entryX=0.327;entryY=-0.03;entryDx=0;entryDy=0;entryPerimeter=0;" parent="1" source="SvzoBT6RqrIEkRedDi3E-86" target="SvzoBT6RqrIEkRedDi3E-61" edge="1">
          <mxGeometry relative="1" as="geometry">
            <mxPoint x="360" y="705" as="targetPoint" />
          </mxGeometry>
        </mxCell>
        <mxCell id="SvzoBT6RqrIEkRedDi3E-86" value="update/delete account" style="whiteSpace=wrap;html=1;" parent="1" vertex="1">
          <mxGeometry x="50" y="675" width="120" height="60" as="geometry" />
        </mxCell>
        <mxCell id="SvzoBT6RqrIEkRedDi3E-90" value="" style="ellipse;whiteSpace=wrap;html=1;" parent="1" vertex="1">
          <mxGeometry x="650" y="1130" width="60" height="60" as="geometry" />
        </mxCell>
      </root>
    </mxGraphModel>
  </diagram>
</mxfile>
